<svg viewBox="0 0 398 390" fill="none" xmlns="http://www.w3.org/2000/svg">
<path d="M130.186 368.189C60.8527 368.189 4.64609 311.903 4.6461 242.471C4.6461 173.038 60.8527 116.753 130.186 116.753C199.518 116.753 255.725 173.038 255.725 242.471C255.725 311.903 199.518 368.189 130.186 368.189Z" stroke="#6246E5"/>
<path d="M143.453 373.171C65.8768 373.171 2.98778 310.194 2.98779 232.506C2.98779 154.818 65.8768 91.8413 143.453 91.8413C221.029 91.8413 283.918 154.818 283.918 232.506C283.918 310.194 221.029 373.171 143.453 373.171Z" stroke="#6246E5"/>
<path d="M154.232 378.153C69.3291 378.153 0.500051 309.228 0.500054 224.202C0.500058 139.177 69.3291 70.2517 154.233 70.2517C239.136 70.2517 307.965 139.177 307.965 224.202C307.965 309.228 239.136 378.153 154.232 378.153Z" stroke="#6246E5"/>
<path d="M169.988 381.475C78.673 381.475 4.6465 307.345 4.64651 215.899C4.64651 124.453 78.673 50.3227 169.988 50.3227C261.303 50.3228 335.329 124.453 335.329 215.899C335.329 307.345 261.303 381.475 169.988 381.475Z" stroke="#6246E5"/>
<path d="M185.328 384.796C87.8307 384.796 8.79235 305.647 8.79235 208.01C8.79235 110.373 87.8307 31.2239 185.328 31.2239C282.825 31.2239 361.864 110.373 361.864 208.01C361.864 305.647 282.825 384.796 185.328 384.796Z" stroke="#6246E5"/>
<path d="M202.741 388.948C95.6269 388.948 8.79235 301.992 8.79235 194.724C8.79235 87.4564 95.627 0.499987 202.741 0.499992C309.856 0.499996 396.69 87.4565 396.69 194.724C396.69 301.992 309.856 388.948 202.741 388.948Z" stroke="#6246E5"/>
</svg>
